<svg xmlns="http://www.w3.org/2000/svg" xmlns:xlink="http://www.w3.org/1999/xlink" viewBox="0 0 64 64" id="networking"><defs><linearGradient id="a" x1="-10.246" x2="40.954" y1="54.585" y2="-11.056" gradientUnits="userSpaceOnUse"><stop offset="0" stop-color="#fff200"></stop><stop offset="1" stop-color="#cd118c"></stop></linearGradient><linearGradient id="b" x1="-2.972" x2="48.228" y1="60.259" y2="-5.382" xlink:href="#a"></linearGradient><linearGradient id="c" x1="19.41" x2="70.611" y1="77.718" y2="12.076" xlink:href="#a"></linearGradient><linearGradient id="d" x1="12.136" x2="63.336" y1="72.044" y2="6.402" xlink:href="#a"></linearGradient><linearGradient id="e" x1="-6.336" x2="44.864" y1="57.635" y2="-8.006" xlink:href="#a"></linearGradient><linearGradient id="f" x1="15.986" x2="67.186" y1="75.046" y2="9.405" xlink:href="#a"></linearGradient><linearGradient id="g" x1="17.191" x2="68.391" y1="75.986" y2="10.345" xlink:href="#a"></linearGradient><linearGradient id="h" x1="4.582" x2="55.782" y1="66.151" y2=".51" xlink:href="#a"></linearGradient></defs><rect width="2" height="9" x="13" y="19" fill="url(#a)"></rect><rect width="2" height="9" x="13" y="34" fill="url(#b)"></rect><rect width="2" height="9" x="49" y="34" fill="url(#c)"></rect><rect width="2" height="9" x="49" y="19" fill="url(#d)"></rect><path fill="url(#e)" d="M48,2H16a3.009,3.009,0,0,0-3,3v8h2V10H49v3h2V5A3.009,3.009,0,0,0,48,2Zm1,6H15V5a1,1,0,0,1,1-1H48a1,1,0,0,1,1,1Z"></path><path fill="url(#f)" d="M49,52H15V49H13V59a3,3,0,0,0,3,3H48a3,3,0,0,0,3-3V49H49Zm-1,8H16a1,1,0,0,1-1-1V54H49v5A1,1,0,0,1,48,60Z"></path><circle cx="32" cy="57" r="2" fill="url(#g)"></circle><path fill="url(#h)" d="M52.1,32a5,5,0,1,0,0-2H43V17h9.1a5,5,0,1,0,0-2H42a1,1,0,0,0-1,1V30H36.9a5,5,0,0,0-9.8,0H23V16a1,1,0,0,0-1-1H11.9a5,5,0,1,0,0,2H21V30H11.9a5,5,0,1,0,0,2H21V45H11.9a5,5,0,1,0,0,2H22a1,1,0,0,0,1-1V32h4.1a5,5,0,0,0,9.8,0H41V46a1,1,0,0,0,1,1H52.1a5,5,0,1,0,0-2H43V32ZM57,28a3,3,0,1,1-3,3A3.009,3.009,0,0,1,57,28Zm0-15a3,3,0,1,1-3,3A3.009,3.009,0,0,1,57,13ZM7,19a3,3,0,1,1,3-3A3.009,3.009,0,0,1,7,19ZM7,34a3,3,0,1,1,3-3A3.009,3.009,0,0,1,7,34ZM7,49a3,3,0,1,1,3-3A3.009,3.009,0,0,1,7,49ZM32,34a3,3,0,1,1,3-3A3.009,3.009,0,0,1,32,34Zm25,9a3,3,0,1,1-3,3A3.009,3.009,0,0,1,57,43Z"></path></svg>